# xmcd
#
# Track frame offsets:
#	150
#	16767
#	28977
#	62968
#	73883
#	90326
#	103578
#	119741
#	130123
#	142187
#	154254
#	166644
#	178746
#	194303
#
# Disc length: 2748 seconds
# Revision: 0
# Processed by: cddbd v1.5.2PL0 Copyright (c) Steve Scherf et al.
# Submitted via: dBpowerAMP V12.0
#
DISCID=c70aba0e
DTITLE=Varios - Bailes de Salon
DYEAR=2004
DGENRE=Swing
TTITLE0=En Forma
TTITLE1=Extraños en la Noche
TTITLE2=Voces de Primavera
TTITLE3=Cerezo Rosa
TTITLE4=Suspiros en España
TTITLE5=La Sombra de Tu Sonrisa
TTITLE6=Serenata a la Luz de la Luna
TTITLE7=Rock Around the Clock
TTITLE8=At the Hop
TTITLE9=Mi Buenos Aires Querido
TTITLE10=Mambo Jambo
TTITLE11=Patria Tus Estrellas
TTITLE12=Collar de Perlas
TTITLE13=Tritsch-Tratsch Polka
EXTD=
EXTT0=
EXTT1=
EXTT2=
EXTT3=
EXTT4=
EXTT5=
EXTT6=
EXTT7=
EXTT8=
EXTT9=
EXTT10=
EXTT11=
EXTT12=
EXTT13=
PLAYORDER=
